<?xml version="1.0" encoding="utf-8"?>
<!-- Generator: Adobe Illustrator 18.0.0, SVG Export Plug-In . SVG Version: 6.00 Build 0)  -->
<!DOCTYPE svg PUBLIC "-//W3C//DTD SVG 1.1//EN" "http://www.w3.org/Graphics/SVG/1.1/DTD/svg11.dtd">
<svg version="1.1" id="Layer_1" xmlns="http://www.w3.org/2000/svg" xmlns:xlink="http://www.w3.org/1999/xlink" x="0px" y="0px"
	 viewBox="0 0 90 90" enable-background="new 0 0 90 90" xml:space="preserve">
<g>
	<g>
		<path d="M45,0C20.1,0,0,20.1,0,45s20.1,45,45,45s45-20.1,45-45S69.9,0,45,0z M61,49.4l-15,15c-2.4,2.4-6.4,2.4-8.8,0
			c-2.4-2.4-2.4-6.4,0-8.8L47.8,45L37.2,34.3c-2.4-2.4-2.4-6.4,0-8.8c2.4-2.4,6.4-2.4,8.8,0l15,15C63.4,43,63.4,47,61,49.4z"/>
	</g>
</g>
</svg>
